<?xml version="1.0" encoding="UTF-8" standalone="no"?>
<!-- Created with Inkscape (http://www.inkscape.org/) -->

<svg
   xmlns:dc="http://purl.org/dc/elements/1.1/"
   xmlns:cc="http://creativecommons.org/ns#"
   xmlns:rdf="http://www.w3.org/1999/02/22-rdf-syntax-ns#"
   xmlns:svg="http://www.w3.org/2000/svg"
   xmlns="http://www.w3.org/2000/svg"
   xmlns:sodipodi="http://sodipodi.sourceforge.net/DTD/sodipodi-0.dtd"
   xmlns:inkscape="http://www.inkscape.org/namespaces/inkscape"
   id="svg2"
   version="1.1"
   inkscape:version="0.91 r13725"
   xml:space="preserve"
   width="684.74408"
   height="810"
   viewBox="0 0 684.74409 810"
   sodipodi:docname="publicdomainq-business-man-inviting.svg"
   inkscape:export-filename="/media/sdb1/_GRAFIKA/Publicdomainq/lidi/publicdomainq-business-man-inviting.png"
   inkscape:export-xdpi="88.850716"
   inkscape:export-ydpi="88.850716"><title
     id="title7771">Business man - inviting</title><metadata
     id="metadata8"><rdf:RDF><cc:Work
         rdf:about=""><dc:format>image/svg+xml</dc:format><dc:type
           rdf:resource="http://purl.org/dc/dcmitype/StillImage" /><dc:title>Business man - inviting</dc:title><cc:license
           rdf:resource="http://creativecommons.org/publicdomain/zero/1.0/" /><dc:subject><rdf:Bag><rdf:li>man</rdf:li><rdf:li>male</rdf:li><rdf:li>work</rdf:li><rdf:li>office</rdf:li><rdf:li>invite</rdf:li><rdf:li>welcome</rdf:li><rdf:li>suit</rdf:li><rdf:li>tie</rdf:li><rdf:li>publicdomainq.net</rdf:li></rdf:Bag></dc:subject><dc:description>This image was adapted from a picture posted to publicdomainq.net. All of the images on these sites are in the public domain i.e. CC0. This site is only in Japanese but can be easily navigated with Google Translate.</dc:description></cc:Work><cc:License
         rdf:about="http://creativecommons.org/publicdomain/zero/1.0/"><cc:permits
           rdf:resource="http://creativecommons.org/ns#Reproduction" /><cc:permits
           rdf:resource="http://creativecommons.org/ns#Distribution" /><cc:permits
           rdf:resource="http://creativecommons.org/ns#DerivativeWorks" /></cc:License></rdf:RDF></metadata><defs
     id="defs6" /><sodipodi:namedview
     pagecolor="#ffffff"
     bordercolor="#666666"
     borderopacity="1"
     objecttolerance="10"
     gridtolerance="10"
     guidetolerance="10"
     inkscape:pageopacity="0"
     inkscape:pageshadow="2"
     inkscape:window-width="1920"
     inkscape:window-height="1125"
     id="namedview4"
     showgrid="false"
     inkscape:zoom="0.53487415"
     inkscape:cx="97.838208"
     inkscape:cy="115.07221"
     inkscape:window-x="0"
     inkscape:window-y="0"
     inkscape:window-maximized="1"
     inkscape:current-layer="svg2"
     fit-margin-top="5"
     fit-margin-left="5"
     fit-margin-bottom="5"
     fit-margin-right="5" /><g
     id="g12"
     transform="matrix(0.45424729,0,0,-0.45424729,4.9981636,804.95642)"><path
       d="M 736.395,7 702.758,219.672 700.563,237 c 0,0 -166.059,-186.1484 -234.235,-199.5391 -53.023,-10.4101 -69.933,10.1211 -88.683,61.3711 -16.497,45.098 -48.75,192.5 -57.086,218.898 -4.375,13.86 0.339,31.149 9.48,45.622 l 131.938,71.32 c 10.699,0.887 25.214,-0.082 26.793,-14.184 1.449,-13.168 8.652,-68.297 16.89,-124.308 l 2.875,-8.25 c 0,0 111.254,189.48 139.633,222.402 51.504,59.75 291.977,132.02 291.977,132.02 l 170.005,0 c 0,0 225.25,-90.09 258.75,-99.77 56.25,-16.25 97.7,-183.383 97.7,-535.16012 L 736.395,7"
       style="fill:#6167a9;fill-opacity:1;fill-rule:nonzero;stroke:none"
       id="path14"
       inkscape:connector-curvature="0" /><path
       d="m 435.82,453.121 c 13.688,5.078 23.02,-5.941 23.02,-5.941 l 12.328,-57.289 c 0.137,-28.129 -72.402,-82.86 -128.957,-71.84 0,0 -14.981,54.031 -15.816,61.359 -0.832,7.34 13.484,20.488 13.484,20.488 l 95.941,53.223"
       style="fill:#ffffff;fill-opacity:1;fill-rule:nonzero;stroke:none"
       id="path16"
       inkscape:connector-curvature="0" /><path
       d="m 345.805,369.809 -27.508,90.8 c 0,0 -74.777,18.121 -179.313,116.7 0,0 -65.8199,33.203 -117.3981,61.761 -33.9687,18.852 13.6289,26.5 13.6289,26.5 0,0 -18.832,13.692 -15.871,25.649 4.1093,16.59 27.3164,12.07 27.3164,12.07 0,0 -2.6563,14.449 12.0429,22.481 14.4336,7.871 37.8907,1.652 37.8907,1.652 0,0 -1.629,17.488 12.8442,22.469 33.914,11.632 115.667,-24.629 185.015,-80.102 l 16.274,-2.141 c -3.789,6.891 -3.481,13.211 -4.125,21.313 -2.348,29.789 1.472,37.269 11.003,39.898 9.504,2.621 25.536,-9.519 35.633,-25.121 10.117,-15.617 35.539,-50.906 47.563,-64.707 9.176,-10.543 41.402,-60.011 33.734,-108.949 l -11.687,-46.773 19.257,-62.598 -36.457,-39.891 -59.843,-11.011"
       style="fill:#fcd0b4;fill-opacity:1;fill-rule:nonzero;stroke:none"
       id="path18"
       inkscape:connector-curvature="0" /><path
       d="m 974.277,672.582 c 0,0 -57.214,-10.512 -66.765,-86.25 -6.719,-53.262 -14.551,-182.441 56.836,-464.594 L 1085,119.469 c 72,283.722 64.15,413.453 57.41,466.863 -9.55,75.738 -66.77,86.25 -66.77,86.25 l -101.363,0"
       style="fill:#ffffff;fill-opacity:1;fill-rule:nonzero;stroke:none"
       id="path20"
       inkscape:connector-curvature="0" /><path
       d="m 991.875,7 c -10.273,36.1289 -19.414,82.6797 -27.527,114.738 l -2.207,13.602 43.809,344.742 -11.204,46.25 -0.183,11.199 30.397,40.051 30.94,-40.75 -0.72,-10.5 -11.21,-46.25 44.77,-341.41 -3.74,-19.203 C 1077.03,88.0781 1068.09,42.2891 1058.05,7"
       style="fill:#f0374b;fill-opacity:1;fill-rule:nonzero;stroke:none"
       id="path22"
       inkscape:connector-curvature="0" /><path
       d="m 1088.63,691 c 0,0 2.17,-35.262 1.66,-53.418 0,0 -19.17,-46.25 -65.49,-60 -46.316,13.75 -65.484,60 -65.484,60 0.247,-0.281 -1.921,53.418 -1.921,53.418"
       style="fill:#fcd0b4;fill-opacity:1;fill-rule:nonzero;stroke:none"
       id="path24"
       inkscape:connector-curvature="0" /><path
       d="m 625.535,1143.03 c -21.25,59.58 -17.238,93.79 -17.238,93.79 l -16.902,-32.32 c -77.5,302.08 86.25,356.83 86.25,356.83 0,0 -64.825,19.99 -63.036,83.74 0,0 89.286,-21.24 187.618,36.26 91.015,53.22 220.153,89.62 350.843,64.69 117.91,-22.5 140.83,-106.1 140.83,-106.1 0,0 117.1,-16.81 161.25,-142.91 47.5,-135.69 7.5,-266.94 7.5,-266.94 l -12.2,36.07 c 0,0 -2.61,-53.52 -32.82,-124.55 l -12.9,-36.25 -761.667,-16.67 -17.528,54.36"
       style="fill:#7b4b4b;fill-opacity:1;fill-rule:nonzero;stroke:none"
       id="path26"
       inkscape:connector-curvature="0" /><path
       d="m 627.23,1137.78 15.833,-49.11 23.121,0.51 -38.539,48.24 c -0.086,0.02 -0.274,0.24 -0.415,0.36 z m 827.92,359.23 c -44.15,126.1 -161.25,142.91 -161.25,142.91 0,0 -22.92,83.6 -140.83,106.1 -130.69,24.93 -259.828,-11.47 -350.843,-64.69 -98.332,-57.5 -187.618,-36.26 -187.618,-36.26 -1.789,-63.75 63.036,-83.74 63.036,-83.74 0,0 -163.75,-54.75 -86.25,-356.83 l 2.753,5.27 c -0.695,3.13 -1.257,6.15 -1.503,8.9 -23.75,270 124.089,341.7 124.089,341.7 0,0 15.602,49.39 113.93,106.89 91.016,53.22 210.056,79.79 341.586,59.72 129.43,-19.74 128.38,-126.18 128.38,-126.18 0,0 122.92,-23.84 167.67,-150.64 -3.36,15.43 -7.64,31.11 -13.15,46.85"
       style="fill:#c79485;fill-opacity:1;fill-rule:nonzero;stroke:none"
       id="path28"
       inkscape:connector-curvature="0" /><path
       d="m 712.645,922.645 c -106.25,-5 -153.75,141.595 -116.25,194.095 27.05,37.87 81.695,13.53 91.902,-7.24"
       style="fill:#fcd0b4;fill-opacity:1;fill-rule:nonzero;stroke:none"
       id="path30"
       inkscape:connector-curvature="0" /><path
       d="m 685.93,1050.41 c 10.027,-28.71 22.941,-71.152 3.304,-78.015 -19.64,-6.86 -43.683,10.847 -53.711,39.555 -10.031,28.7 -2.246,57.55 17.391,64.41 19.66,6.86 22.984,2.75 33.016,-25.95"
       style="fill:#de9284;fill-opacity:1;fill-rule:nonzero;stroke:none"
       id="path32"
       inkscape:connector-curvature="0" /><path
       d="m 1337.65,922.645 c 106.25,-5 153.75,141.595 116.25,194.095 -27.05,37.87 -81.69,13.53 -91.91,-7.24"
       style="fill:#fcd0b4;fill-opacity:1;fill-rule:nonzero;stroke:none"
       id="path34"
       inkscape:connector-curvature="0" /><path
       d="m 959.57,709.789 126.97,0 1.38,-48.187 c 0,0 -51.1,-47.512 -131.943,-25.43 l 2.402,24.238 1.191,49.379"
       style="fill:#de9284;fill-opacity:1;fill-rule:nonzero;stroke:none"
       id="path36"
       inkscape:connector-curvature="0" /><path
       d="M 822.09,1449.09 C 695.145,1417.58 688.895,1204.5 688.895,1204.5 c -2.887,-113.56 2.226,-308.77 71.25,-383.105 68.566,-73.825 135,-109.997 193.75,-127.497 0,0 72.505,-24.168 142.505,0 58.75,17.5 125.18,53.672 193.75,127.497 75.22,81.007 74.56,307.425 70.32,411.285 -1.25,30.76 -18.16,65.93 -25.53,74.71 -107.29,127.69 -106.99,206.63 -106.99,206.63 l -15.1,-18.16 c -27.66,-27.64 -78.6,-55.15 -171.8,-68.85 0,0 33.34,113.33 60,133.33 0,0 -116.655,-148.33 -306.655,-183.33 0,0 5.976,25.72 21.484,59.29 l 6.211,12.79"
       style="fill:#fcd0b4;fill-opacity:1;fill-rule:nonzero;stroke:none"
       id="path38"
       inkscape:connector-curvature="0" /><path
       d="m 929.434,1291.26 c -4.121,-3.47 -15.02,3.39 -30.743,12.96 -15.527,9.39 -37.199,21.27 -57.793,18.28 -20.73,-2.45 -38.543,-19.15 -49.152,-32.36 -11.043,-13.38 -15.203,-23.54 -20.359,-24 -2.532,-0.16 -5.352,3.16 -6.485,9.76 -1.113,6.53 -0.437,15.97 3.262,26.64 3.711,10.65 10.313,22.73 21.309,33.81 10.82,10.95 27.031,21.05 46.562,23.52 19.531,2.61 37.774,-3.06 50.86,-10.63 13.339,-7.62 22.746,-16.86 29.511,-25.12 13.399,-16.74 16.856,-29.7 13.028,-32.86"
       style="fill:#231f20;fill-opacity:1;fill-rule:nonzero;stroke:none"
       id="path40"
       inkscape:connector-curvature="0" /><path
       d="m 1120.86,1291.26 c -3.83,3.16 -0.37,16.12 13.03,32.86 6.76,8.26 16.17,17.5 29.51,25.11 13.08,7.58 31.33,13.25 50.86,10.64 19.53,-2.47 35.74,-12.57 46.56,-23.52 11,-11.08 17.6,-23.16 21.31,-33.81 3.7,-10.67 4.37,-20.11 3.25,-26.64 -1.12,-6.6 -3.95,-9.92 -6.49,-9.76 -5.15,0.46 -9.3,10.62 -20.35,24 -10.6,13.21 -28.41,29.91 -49.15,32.36 -20.59,2.99 -42.26,-8.89 -57.79,-18.28 -15.72,-9.57 -26.62,-16.43 -30.74,-12.96"
       style="fill:#231f20;fill-opacity:1;fill-rule:nonzero;stroke:none"
       id="path42"
       inkscape:connector-curvature="0" /><path
       d="m 863.777,1019.12 c 0,-13.7 -30.839,-24.804 -68.875,-24.804 -38.047,0 -68.886,11.104 -68.886,24.804 0,13.69 30.839,24.79 68.886,24.79 38.036,0 68.875,-11.1 68.875,-24.79"
       style="fill:#f7939c;fill-opacity:1;fill-rule:nonzero;stroke:none"
       id="path44"
       inkscape:connector-curvature="0" /><path
       d="m 1330.68,1019.12 c 0,-13.7 -30.84,-24.804 -68.88,-24.804 -38.05,0 -68.89,11.104 -68.89,24.804 0,13.69 30.84,24.79 68.89,24.79 38.04,0 68.88,-11.1 68.88,-24.79"
       style="fill:#f7939c;fill-opacity:1;fill-rule:nonzero;stroke:none"
       id="path46"
       inkscape:connector-curvature="0" /><path
       d="m 1364.37,1050.41 c -10.03,-28.71 -22.94,-71.152 -3.32,-78.015 19.65,-6.86 43.7,10.847 53.72,39.555 10.03,28.7 2.24,57.55 -17.39,64.41 -19.67,6.86 -22.99,2.75 -33.01,-25.95"
       style="fill:#de9284;fill-opacity:1;fill-rule:nonzero;stroke:none"
       id="path48"
       inkscape:connector-curvature="0" /><path
       d="m 965.625,1576.42 c 0,0 -117.039,-27.59 -165.059,-195.25 l 39.661,7.99 c 0,0 39.285,126.23 125.398,187.26"
       style="fill:#c79485;fill-opacity:1;fill-rule:nonzero;stroke:none"
       id="path50"
       inkscape:connector-curvature="0" /><path
       d="m 1130.98,1574.09 c 0,0 -50.29,-10.45 -83.75,-143.75 l 32.92,5.42 c 0,0 11.25,93.33 50.83,138.33"
       style="fill:#c79485;fill-opacity:1;fill-rule:nonzero;stroke:none"
       id="path52"
       inkscape:connector-curvature="0" /><path
       d="m 508.535,287.93 c 0,0 128.715,217.172 145.36,231.371 42.5,36.25 198.75,105 268.75,117.5 L 909.98,595.102 c 0,0 -201.363,-60.532 -239.414,-108.102 -39.785,-49.73 -155,-247.5 -155,-247.5 l -7.031,48.43"
       style="fill:#c6cbeb;fill-opacity:1;fill-rule:nonzero;stroke:none"
       id="path54"
       inkscape:connector-curvature="0" /><path
       d="m 1130.57,630.332 c 0,0 238.32,-85.844 247.5,-90.844 5.15,-2.808 15.35,-13.566 26.99,-35.539 -0.23,0.84 -3.88,-21.679 -4.4,-21.808 -12.57,14.937 -28.4,29.039 -46.76,35.691 -29.74,10.758 -211.78,76.547 -211.78,76.547 l -11.55,35.953"
       style="fill:#c6cbeb;fill-opacity:1;fill-rule:nonzero;stroke:none"
       id="path56"
       inkscape:connector-curvature="0" /><path
       d="m 1191.36,923.301 c -22.64,-35.164 -74.68,-97.969 -165.17,-97.969 -90.487,0 -142.538,62.805 -165.174,97.969"
       style="fill:none;stroke:#231f20;stroke-width:16;stroke-linecap:round;stroke-linejoin:round;stroke-miterlimit:10;stroke-dasharray:none;stroke-opacity:1"
       id="path58"
       inkscape:connector-curvature="0" /><path
       d="m 1003.11,482.141 -10.083,50.898 -58.086,-68.219 68.169,17.321"
       style="fill:#c2d0d6;fill-opacity:1;fill-rule:nonzero;stroke:none"
       id="path60"
       inkscape:connector-curvature="0" /><path
       d="m 1044.65,482.141 10.08,50.898 58.08,-68.219 -68.16,17.321"
       style="fill:#c2d0d6;fill-opacity:1;fill-rule:nonzero;stroke:none"
       id="path62"
       inkscape:connector-curvature="0" /><path
       d="m 929.27,1142.61 c 0,-45.45 -28.247,-82.29 -63.079,-82.29 -34.843,0 -63.105,36.84 -63.105,82.29 0,45.45 28.262,82.29 63.105,82.29 34.832,0 63.079,-36.84 63.079,-82.29"
       style="fill:#ffffff;fill-opacity:1;fill-rule:nonzero;stroke:none"
       id="path64"
       inkscape:connector-curvature="0" /><path
       d="m 919.434,1130.73 c 0,-30.96 -17.422,-56.05 -38.899,-56.05 -21.48,0 -38.894,25.09 -38.894,56.05 0,30.97 17.414,56.06 38.894,56.06 21.477,0 38.899,-25.09 38.899,-56.06"
       style="fill:#231f20;fill-opacity:1;fill-rule:nonzero;stroke:none"
       id="path66"
       inkscape:connector-curvature="0" /><path
       d="m 918.75,1149.5 c 0,-6.34 -5.137,-11.48 -11.484,-11.48 -6.348,0 -11.504,5.14 -11.504,11.48 0,6.35 5.156,11.5 11.504,11.5 6.347,0 11.484,-5.15 11.484,-11.5"
       style="fill:#ffffff;fill-opacity:1;fill-rule:nonzero;stroke:none"
       id="path68"
       inkscape:connector-curvature="0" /><path
       d="m 871.348,1201.8 c 15.965,0 31.179,-2.9 45.215,-7.99 -12.618,18.38 -30.887,30.02 -51.29,30.02 -23.046,0 -43.378,-14.8 -55.898,-37.45 18.27,9.76 39.395,15.42 61.973,15.42"
       style="fill:#d8e5f6;fill-opacity:1;fill-rule:nonzero;stroke:none"
       id="path70"
       inkscape:connector-curvature="0" /><path
       d="m 922.363,1190.31 c -24.238,51.13 -119.355,55.62 -122.976,-45.17"
       style="fill:none;stroke:#231f20;stroke-width:16;stroke-linecap:round;stroke-linejoin:round;stroke-miterlimit:10;stroke-dasharray:none;stroke-opacity:1"
       id="path72"
       inkscape:connector-curvature="0" /><path
       d="m 1118.95,1142.61 c 0,-45.45 28.24,-82.29 63.07,-82.29 34.85,0 63.11,36.84 63.11,82.29 0,45.45 -28.26,82.29 -63.11,82.29 -34.83,0 -63.07,-36.84 -63.07,-82.29"
       style="fill:#ffffff;fill-opacity:1;fill-rule:nonzero;stroke:none"
       id="path74"
       inkscape:connector-curvature="0" /><path
       d="m 1173.99,1201.8 c -15.96,0 -31.18,-2.9 -45.21,-7.99 12.62,18.38 30.89,30.02 51.29,30.02 23.05,0 43.38,-14.8 55.9,-37.45 -18.27,9.76 -39.4,15.42 -61.98,15.42"
       style="fill:#d8e5f6;fill-opacity:1;fill-rule:nonzero;stroke:none"
       id="path76"
       inkscape:connector-curvature="0" /><path
       d="m 1128.78,1130.73 c 0,-30.96 17.42,-56.05 38.9,-56.05 21.48,0 38.89,25.09 38.89,56.05 0,30.97 -17.41,56.06 -38.89,56.06 -21.48,0 -38.9,-25.09 -38.9,-56.06"
       style="fill:#231f20;fill-opacity:1;fill-rule:nonzero;stroke:none"
       id="path78"
       inkscape:connector-curvature="0" /><path
       d="m 1182.79,1149.5 c 0,-6.34 5.14,-11.48 11.49,-11.48 6.35,0 11.5,5.14 11.5,11.48 0,6.35 -5.15,11.5 -11.5,11.5 -6.35,0 -11.49,-5.15 -11.49,-11.5"
       style="fill:#ffffff;fill-opacity:1;fill-rule:nonzero;stroke:none"
       id="path80"
       inkscape:connector-curvature="0" /><path
       d="m 1125.85,1190.31 c 24.24,51.13 119.36,55.62 122.98,-45.17"
       style="fill:none;stroke:#231f20;stroke-width:16;stroke-linecap:round;stroke-linejoin:round;stroke-miterlimit:10;stroke-dasharray:none;stroke-opacity:1"
       id="path82"
       inkscape:connector-curvature="0" /><path
       d="m 1244.39,1575.34 c 0,0 23.33,-115 -203.34,-148.33 0,0 33.34,113.33 60,133.33 0,0 -116.655,-148.33 -306.655,-183.33 0,0 33.332,143.33 146.66,195"
       style="fill:none;stroke:#231f20;stroke-width:14;stroke-linecap:round;stroke-linejoin:round;stroke-miterlimit:10;stroke-dasharray:none;stroke-opacity:1"
       id="path84"
       inkscape:connector-curvature="0" /><path
       d="m 1019.73,1033.9 c 0,0 -42.503,-16.67 -38.335,-36.666 4.171,-20 19.175,-42.5 19.175,-42.5"
       style="fill:none;stroke:#231f20;stroke-width:14;stroke-linecap:round;stroke-linejoin:round;stroke-miterlimit:10;stroke-dasharray:none;stroke-opacity:1"
       id="path86"
       inkscape:connector-curvature="0" /><path
       d="m 998.895,1111.4 c 0,0 12.495,-56.67 9.175,-81.67"
       style="fill:none;stroke:#231f20;stroke-width:14;stroke-linecap:round;stroke-linejoin:round;stroke-miterlimit:10;stroke-dasharray:none;stroke-opacity:1"
       id="path88"
       inkscape:connector-curvature="0" /><path
       d="m 712.645,922.645 c -106.25,-5 -153.75,141.595 -116.25,194.095 27.05,37.87 81.695,13.53 91.902,-7.24"
       style="fill:none;stroke:#231f20;stroke-width:14;stroke-linecap:round;stroke-linejoin:round;stroke-miterlimit:10;stroke-dasharray:none;stroke-opacity:1"
       id="path90"
       inkscape:connector-curvature="0" /><path
       d="m 692.691,1043.91 c 0,0 -35.589,72.81 -75.921,38.67"
       style="fill:none;stroke:#231f20;stroke-width:14;stroke-linecap:round;stroke-linejoin:round;stroke-miterlimit:10;stroke-dasharray:none;stroke-opacity:1"
       id="path92"
       inkscape:connector-curvature="0" /><path
       d="m 1337.65,922.645 c 106.25,-5 153.75,141.595 116.25,194.095 -27.05,37.87 -81.69,13.53 -91.91,-7.24"
       style="fill:none;stroke:#231f20;stroke-width:14;stroke-linecap:round;stroke-linejoin:round;stroke-miterlimit:10;stroke-dasharray:none;stroke-opacity:1"
       id="path94"
       inkscape:connector-curvature="0" /><path
       d="m 1357.6,1043.91 c 0,0 35.59,72.81 75.93,38.67"
       style="fill:none;stroke:#231f20;stroke-width:14;stroke-linecap:round;stroke-linejoin:round;stroke-miterlimit:10;stroke-dasharray:none;stroke-opacity:1"
       id="path96"
       inkscape:connector-curvature="0" /><path
       d="m 1227.95,1514.02 c 0,0 -0.3,-78.94 106.99,-206.63 7.37,-8.78 24.28,-43.95 25.53,-74.71 4.24,-103.86 4.9,-330.278 -70.32,-411.285 -68.57,-73.825 -135,-109.997 -193.75,-127.497 -70,-24.168 -142.505,0 -142.505,0 -58.75,17.5 -125.184,53.672 -193.75,127.497 -69.024,74.335 -74.137,269.545 -71.25,383.105 0,0 6.25,213.08 133.195,244.59"
       style="fill:none;stroke:#231f20;stroke-width:14;stroke-linecap:round;stroke-linejoin:round;stroke-miterlimit:10;stroke-dasharray:none;stroke-opacity:1"
       id="path98"
       inkscape:connector-curvature="0" /><path
       d="m 617.305,1254.62 c -13.813,-27.66 -25.91,-50.12 -25.91,-50.12 -77.5,302.08 86.25,356.83 86.25,356.83 0,0 -64.825,19.99 -63.036,83.74 0,0 89.286,-21.24 187.618,36.26 91.015,53.22 220.153,89.62 350.843,64.69 117.91,-22.5 140.83,-106.1 140.83,-106.1 0,0 117.1,-16.81 161.25,-142.91 47.5,-135.69 7.5,-266.94 7.5,-266.94 0,0.01 -10.82,33.53 -24.27,69.47"
       style="fill:none;stroke:#231f20;stroke-width:14;stroke-linecap:round;stroke-linejoin:round;stroke-miterlimit:10;stroke-dasharray:none;stroke-opacity:1"
       id="path100"
       inkscape:connector-curvature="0" /><path
       d="m 608.297,1236.82 c 0,0 -4.012,-34.21 17.238,-93.79"
       style="fill:none;stroke:#231f20;stroke-width:14;stroke-linecap:round;stroke-linejoin:round;stroke-miterlimit:10;stroke-dasharray:none;stroke-opacity:1"
       id="path102"
       inkscape:connector-curvature="0" /><path
       d="m 1450.45,1266.14 c 0,0 -2.61,-53.52 -32.82,-124.55"
       style="fill:none;stroke:#231f20;stroke-width:14;stroke-linecap:round;stroke-linejoin:round;stroke-miterlimit:10;stroke-dasharray:none;stroke-opacity:1"
       id="path104"
       inkscape:connector-curvature="0" /><path
       d="m 929.434,1291.26 c -4.121,-3.47 -15.02,3.39 -30.743,12.96 -15.527,9.39 -37.199,21.27 -57.793,18.28 -20.73,-2.45 -38.543,-19.15 -49.152,-32.36 -11.043,-13.38 -15.203,-23.54 -20.359,-24 -2.532,-0.16 -5.352,3.16 -6.485,9.76 -1.113,6.53 -0.437,15.97 3.262,26.64 3.711,10.65 10.313,22.73 21.309,33.81 10.82,10.95 27.031,21.05 46.562,23.52 19.531,2.61 37.774,-3.06 50.86,-10.63 13.339,-7.62 22.746,-16.86 29.511,-25.12 13.399,-16.74 16.856,-29.7 13.028,-32.86"
       style="fill:#231f20;fill-opacity:1;fill-rule:nonzero;stroke:none"
       id="path106"
       inkscape:connector-curvature="0" /><path
       d="m 1120.86,1291.26 c -3.83,3.16 -0.37,16.12 13.03,32.86 6.76,8.26 16.17,17.5 29.51,25.11 13.08,7.58 31.33,13.25 50.86,10.64 19.53,-2.47 35.74,-12.57 46.56,-23.52 11,-11.08 17.6,-23.16 21.31,-33.81 3.7,-10.67 4.37,-20.11 3.25,-26.64 -1.12,-6.6 -3.95,-9.92 -6.49,-9.76 -5.15,0.46 -9.3,10.62 -20.35,24 -10.6,13.21 -28.41,29.91 -49.15,32.36 -20.59,2.99 -42.26,-8.89 -57.79,-18.28 -15.72,-9.57 -26.62,-16.43 -30.74,-12.96"
       style="fill:#231f20;fill-opacity:1;fill-rule:nonzero;stroke:none"
       id="path108"
       inkscape:connector-curvature="0" /><path
       d="M 924.836,637.59 C 871.055,620.559 691.797,560.949 648.168,510.332 619.789,477.41 508.535,287.93 508.535,287.93"
       style="fill:none;stroke:#231f20;stroke-width:14;stroke-linecap:round;stroke-linejoin:round;stroke-miterlimit:10;stroke-dasharray:none;stroke-opacity:1"
       id="path110"
       inkscape:connector-curvature="0" /><path
       d="M 955.305,665.07 C 937.734,655.219 913.438,633.34 907.512,586.332 900.027,527.012 891.16,361.039 991.875,7"
       style="fill:none;stroke:#231f20;stroke-width:14;stroke-linecap:round;stroke-linejoin:round;stroke-miterlimit:10;stroke-dasharray:none;stroke-opacity:1"
       id="path112"
       inkscape:connector-curvature="0" /><path
       d="m 1091.25,666.84 c 17.68,-8.86 44.84,-30.418 51.16,-80.508 7.48,-59.32 16.35,-225.293 -84.36,-579.332"
       style="fill:none;stroke:#231f20;stroke-width:14;stroke-linecap:round;stroke-linejoin:round;stroke-miterlimit:10;stroke-dasharray:none;stroke-opacity:1"
       id="path114"
       inkscape:connector-curvature="0" /><path
       d="m 903.34,631.512 -121.172,-88.821 48.918,-87.5 -76.25,-64.601 c 0,0 121.492,-259.36 206.988,-373.7189"
       style="fill:none;stroke:#231f20;stroke-width:12;stroke-linecap:round;stroke-linejoin:round;stroke-miterlimit:10;stroke-dasharray:none;stroke-opacity:1"
       id="path116"
       inkscape:connector-curvature="0" /><path
       d="m 1089.5,691.891 c 0,0 0.81,-36.262 3.25,-53.36 0,0 -21.63,-47.199 -67.95,-60.949 -46.316,13.75 -69.741,60.539 -69.741,60.539 1.218,19.969 1.629,53.77 1.629,53.77"
       style="fill:none;stroke:#231f20;stroke-width:14;stroke-linecap:round;stroke-linejoin:round;stroke-miterlimit:10;stroke-dasharray:none;stroke-opacity:1"
       id="path118"
       inkscape:connector-curvature="0" /><path
       d="m 1127.8,635.301 c 53.73,-21.391 213.32,-84.692 241.1,-92.719 56.25,-16.25 97.7,-183.383 97.7,-535.16012"
       style="fill:none;stroke:#231f20;stroke-width:14;stroke-linecap:round;stroke-linejoin:round;stroke-miterlimit:10;stroke-dasharray:none;stroke-opacity:1"
       id="path120"
       inkscape:connector-curvature="0" /><path
       d="m 1152.77,625.012 119.16,-82.321 -48.91,-87.5 76.25,-64.601 c 0,0 -136.52,-275.391 -216.67,-377.9884"
       style="fill:none;stroke:#231f20;stroke-width:12;stroke-linecap:round;stroke-linejoin:round;stroke-miterlimit:10;stroke-dasharray:none;stroke-opacity:1"
       id="path122"
       inkscape:connector-curvature="0" /><path
       d="M 994.746,533.039 1005.95,480.082 962.141,135.34"
       style="fill:none;stroke:#231f20;stroke-width:12;stroke-linecap:round;stroke-linejoin:round;stroke-miterlimit:10;stroke-dasharray:none;stroke-opacity:1"
       id="path124"
       inkscape:connector-curvature="0" /><path
       d="m 1055.18,533.039 -11.21,-52.957 44.77,-341.41"
       style="fill:none;stroke:#231f20;stroke-width:12;stroke-linecap:round;stroke-linejoin:round;stroke-miterlimit:10;stroke-dasharray:none;stroke-opacity:1"
       id="path126"
       inkscape:connector-curvature="0" /><path
       d="M 669.73,416.211 736.395,7"
       style="fill:none;stroke:#231f20;stroke-width:12;stroke-linecap:round;stroke-linejoin:round;stroke-miterlimit:10;stroke-dasharray:none;stroke-opacity:1"
       id="path128"
       inkscape:connector-curvature="0" /><path
       d="M 1404.73,503.672 1318.9,7"
       style="fill:none;stroke:#231f20;stroke-width:12;stroke-linecap:round;stroke-linejoin:round;stroke-miterlimit:10;stroke-dasharray:none;stroke-opacity:1"
       id="path130"
       inkscape:connector-curvature="0" /><path
       d="m 1419.58,327.52 c 0,0 -18.3,-103.829 -73.87,-155.641"
       style="fill:none;stroke:#231f20;stroke-width:10;stroke-linecap:round;stroke-linejoin:round;stroke-miterlimit:10;stroke-dasharray:none;stroke-opacity:1"
       id="path132"
       inkscape:connector-curvature="0" /><path
       d="m 1142.41,586.332 c -4.31,-61.25 -26.81,-128.133 -26.81,-128.133 l -90.64,119.383 -90.636,-119.383 c 0,0 -22.5,66.883 -26.812,128.133"
       style="fill:none;stroke:#231f20;stroke-width:12;stroke-linecap:round;stroke-linejoin:round;stroke-miterlimit:10;stroke-dasharray:none;stroke-opacity:1"
       id="path134"
       inkscape:connector-curvature="0" /><path
       d="m 345.336,377.852 c -8.852,37.418 -13.984,66.636 -26.637,83.679"
       style="fill:none;stroke:#231f20;stroke-width:14;stroke-linecap:round;stroke-linejoin:round;stroke-miterlimit:10;stroke-dasharray:none;stroke-opacity:1"
       id="path136"
       inkscape:connector-curvature="0" /><path
       d="m 422.852,496.172 c 0,0 5,-39.371 17.789,-73.281"
       style="fill:none;stroke:#231f20;stroke-width:14;stroke-linecap:round;stroke-linejoin:round;stroke-miterlimit:10;stroke-dasharray:none;stroke-opacity:1"
       id="path138"
       inkscape:connector-curvature="0" /><path
       d="m 461.977,434.672 c 10.699,0.887 25.214,-0.082 26.793,-14.184 2.539,-22.988 22.625,-174.156 35.125,-234.156"
       style="fill:none;stroke:#231f20;stroke-width:14;stroke-linecap:round;stroke-linejoin:round;stroke-miterlimit:10;stroke-dasharray:none;stroke-opacity:1"
       id="path140"
       inkscape:connector-curvature="0" /><path
       d="m 339.879,399.898 c 0,0 -14.316,-13.148 -13.484,-20.488 0.835,-7.328 15.816,-61.359 15.816,-61.359 56.555,-11.02 129.094,43.711 128.957,71.84 L 458.84,447.18 c 0,0 -9.332,11.019 -23.02,5.941"
       style="fill:none;stroke:#231f20;stroke-width:14;stroke-linecap:round;stroke-linejoin:round;stroke-miterlimit:10;stroke-dasharray:none;stroke-opacity:1"
       id="path142"
       inkscape:connector-curvature="0" /><path
       d="m 330.039,363.352 c -9.141,-14.473 -13.855,-31.762 -9.48,-45.622 8.336,-26.398 40.589,-173.8 57.086,-218.898 18.75,-51.25 35.66,-71.7812 88.683,-61.3711 C 534.504,50.8516 698.27,233.672 698.27,233.672"
       style="fill:none;stroke:#231f20;stroke-width:14;stroke-linecap:round;stroke-linejoin:round;stroke-miterlimit:10;stroke-dasharray:none;stroke-opacity:1"
       id="path144"
       inkscape:connector-curvature="0" /><path
       d="m 341.461,371.891 c 0,0 5.258,-5.95 28.379,-0.641 45.519,10.461 75.211,44.961 75.183,60.578"
       style="fill:none;stroke:#231f20;stroke-width:14;stroke-linecap:round;stroke-linejoin:round;stroke-miterlimit:10;stroke-dasharray:none;stroke-opacity:1"
       id="path146"
       inkscape:connector-curvature="0" /><path
       d="m 341.438,456.691 c 0,0 -96.672,9.09 -204.563,116.637 0,0 -66.0508,35.211 -117.7539,65.434 -34.0469,19.886 14.4492,26.547 14.4492,26.547 0,0 -18.8008,14.363 -15.539,26.421 4.5742,16.75 28.0273,11.622 28.0273,11.622 0,0 -2.3789,14.757 12.7344,22.546 14.8398,7.653 38.5234,0.801 38.5234,0.801 0,0 -1.2578,17.781 13.5466,22.52 34.707,11.019 116.836,-27.68 185.989,-85.598"
       style="fill:none;stroke:#231f20;stroke-width:14;stroke-linecap:round;stroke-linejoin:round;stroke-miterlimit:10;stroke-dasharray:none;stroke-opacity:1"
       id="path148"
       inkscape:connector-curvature="0" /><path
       d="m 410.945,475.738 c 47.879,61.371 5.039,139.891 -6.843,154.184 -11.895,14.316 -36.895,50.719 -46.801,66.808 -9.914,16.071 -26.953,34.622 -36.656,32.168 -9.747,-2.449 -15.86,-14.308 -14.165,-44.558 1.696,-30.238 33.231,-55.442 33.231,-55.442 0,0 -26.703,-69.816 12.293,-101.367"
       style="fill:none;stroke:#231f20;stroke-width:14;stroke-linecap:round;stroke-linejoin:round;stroke-miterlimit:10;stroke-dasharray:none;stroke-opacity:1"
       id="path150"
       inkscape:connector-curvature="0" /><path
       d="m 305.66,660.59 c 0,0 -82.824,-0.699 -155.703,-64.781"
       style="fill:none;stroke:#231f20;stroke-width:14;stroke-linecap:round;stroke-linejoin:round;stroke-miterlimit:10;stroke-dasharray:none;stroke-opacity:1"
       id="path152"
       inkscape:connector-curvature="0" /><path
       d="m 33.5703,665.309 c 0,0 51.9492,-6.227 110.0157,-49.079"
       style="fill:none;stroke:#231f20;stroke-width:14;stroke-linecap:round;stroke-linejoin:round;stroke-miterlimit:10;stroke-dasharray:none;stroke-opacity:1"
       id="path154"
       inkscape:connector-curvature="0" /><path
       d="m 45.3008,703.262 c 0,0 74.7812,-6.992 161.4022,-67.41"
       style="fill:none;stroke:#231f20;stroke-width:14;stroke-linecap:round;stroke-linejoin:round;stroke-miterlimit:10;stroke-dasharray:none;stroke-opacity:1"
       id="path156"
       inkscape:connector-curvature="0" /><path
       d="m 95.832,727.539 c 1.6407,-0.187 85.746,-15.07 149.621,-78.027"
       style="fill:none;stroke:#231f20;stroke-width:14;stroke-linecap:round;stroke-linejoin:round;stroke-miterlimit:10;stroke-dasharray:none;stroke-opacity:1"
       id="path158"
       inkscape:connector-curvature="0" /></g></svg>